<svg width="54" height="41" viewBox="0 0 54 41" fill="none" xmlns="http://www.w3.org/2000/svg">
<path fill-rule="evenodd" clip-rule="evenodd" d="M16 0H26V5H16V0ZM11 6V11H21V6H11ZM49 12H54V17H49V12ZM54 24H49V29H54V24ZM0 35V30H10V35H0ZM21 35V30H11V35H21ZM32 35V30H27H22V35H32ZM17.8321 24C18.7864 26.1842 20.4984 27.9616 22.6359 29H16V24H17.8321ZM17.2 18C17.0689 18.6462 17 19.3151 17 20C17 21.0452 17.1604 22.053 17.4578 23H11V18H17.2ZM20.999 12C19.3466 13.2415 18.0913 14.9831 17.4578 17H16V12H20.999ZM31.3641 11C30.0454 10.3593 28.5646 10 27 10C25.4354 10 23.9546 10.3593 22.6359 11H22V6H32V11H31.3641ZM36.5422 17C35.9087 14.9831 34.6534 13.2415 33.001 12H37V17H36.5422ZM36.5422 23C36.8396 22.053 37 21.0452 37 20C37 19.3151 36.9311 18.6462 36.8 18H43V23H36.5422ZM31.3641 29C33.5016 27.9616 35.2136 26.1842 36.1679 24H37V29H31.3641ZM43 35V30H33V35H43ZM44 35V30H54V35H44ZM26 36V41H16V36H26ZM15 36H5V41H15V36ZM37 36V41H27V36H37ZM48 41V36H38V41H48ZM38 24V29H48V24H38ZM38 17V12H48V17H38ZM15 29V24H5V29H15ZM5 12H15V17H5V12ZM4 24H0V29H4V24ZM0 12H4V17H0V12ZM10 23V18H0V23H10ZM0 6H10V11H0V6ZM54 6H44V11H54V6ZM15 0H5V5H15V0ZM27 0H37V5H27V0ZM48 0H38V5H48V0ZM43 11V6H33V11H43ZM44 18H54V23H44V18Z" fill="#E5EEFF"/>
<path d="M33.375 25.1484C33.375 25.2474 33.3411 25.3359 33.2734 25.4141C33.2109 25.4922 33.1276 25.5391 33.0234 25.5547L29.1016 26.1094H29.0547C28.9609 26.1094 28.875 26.0807 28.7969 26.0234C28.7188 25.9661 28.6719 25.888 28.6562 25.7891C28.651 25.7839 28.6276 25.7057 28.5859 25.5547C28.5495 25.4036 28.487 25.2005 28.3984 24.9453C28.3099 24.6901 28.1901 24.3932 28.0391 24.0547C27.8932 23.7109 27.7109 23.3464 27.4922 22.9609C27.2786 22.5755 27.0234 22.1797 26.7266 21.7734C26.4349 21.3672 26.0964 20.9688 25.7109 20.5781C25.5495 20.7031 25.4062 20.8099 25.2812 20.8984C25.1562 20.987 25.0547 21.0599 24.9766 21.1172L25.0547 25.2031C25.2474 25.2188 25.4427 25.2344 25.6406 25.25C25.8385 25.2656 26.0339 25.2812 26.2266 25.2969C26.3307 25.3125 26.4167 25.3594 26.4844 25.4375C26.5573 25.5156 26.5938 25.6068 26.5938 25.7109C26.5938 25.8411 26.5469 25.9401 26.4531 26.0078C26.3594 26.0755 26.2682 26.1094 26.1797 26.1094H26.125C25.7344 26.0677 25.3359 26.0365 24.9297 26.0156C24.5286 25.9948 24.1224 25.9844 23.7109 25.9844C23.2943 25.9844 22.8776 25.9948 22.4609 26.0156C22.0495 26.0365 21.6354 26.0677 21.2188 26.1094H21.1719C21.0521 26.1094 20.9531 26.0703 20.875 25.9922C20.8021 25.9089 20.7656 25.8151 20.7656 25.7109C20.7656 25.6068 20.7995 25.5156 20.8672 25.4375C20.9401 25.3594 21.0286 25.3125 21.1328 25.2969C21.3464 25.2812 21.5547 25.2656 21.7578 25.25C21.9661 25.2344 22.1693 25.2188 22.3672 25.2031L22.1094 15.5859C21.9115 15.5755 21.7135 15.5651 21.5156 15.5547C21.3229 15.5391 21.1276 15.5234 20.9297 15.5078C20.8255 15.4974 20.737 15.4531 20.6641 15.375C20.5964 15.2969 20.5625 15.2057 20.5625 15.1016C20.5625 14.9766 20.6068 14.8776 20.6953 14.8047C20.7839 14.7266 20.8776 14.6875 20.9766 14.6875H21.0078C21.3203 14.7188 21.6328 14.7396 21.9453 14.75C22.2578 14.7604 22.5755 14.7656 22.8984 14.7656C23.4297 14.7656 23.9635 14.75 24.5 14.7188C25.0365 14.6823 25.5781 14.625 26.125 14.5469H26.1797C26.2995 14.5469 26.3984 14.5885 26.4766 14.6719C26.5547 14.75 26.5938 14.8464 26.5938 14.9609C26.5938 15.0547 26.5599 15.1406 26.4922 15.2188C26.4297 15.2969 26.3464 15.3438 26.2422 15.3594C26.0078 15.3906 25.7786 15.4193 25.5547 15.4453C25.3307 15.4661 25.1068 15.487 24.8828 15.5078L24.9609 20.1094C25.2109 19.9167 25.5026 19.6823 25.8359 19.4062C26.1745 19.125 26.526 18.7943 26.8906 18.4141C27.2604 18.0286 27.625 17.5938 27.9844 17.1094C28.349 16.6198 28.6797 16.0729 28.9766 15.4688H27.875C27.7604 15.4688 27.6615 15.4323 27.5781 15.3594C27.4948 15.2812 27.4531 15.1849 27.4531 15.0703C27.4531 14.9505 27.4948 14.8516 27.5781 14.7734C27.6615 14.6953 27.7604 14.6562 27.875 14.6562H31.375C31.4896 14.6562 31.5859 14.6953 31.6641 14.7734C31.7474 14.8516 31.7891 14.9505 31.7891 15.0703C31.7891 15.1849 31.7474 15.2812 31.6641 15.3594C31.5859 15.4323 31.4896 15.4688 31.375 15.4688H29.8906C29.7292 15.8281 29.5573 16.1615 29.375 16.4688C29.1979 16.7708 29.013 17.0573 28.8203 17.3281C28.6276 17.5938 28.4271 17.8464 28.2188 18.0859C28.0104 18.3255 27.7995 18.5625 27.5859 18.7969C27.7005 18.8958 27.849 19.0365 28.0312 19.2188C28.2135 19.3958 28.4141 19.6146 28.6328 19.875C28.8516 20.1354 29.0781 20.4375 29.3125 20.7812C29.5521 21.1198 29.7865 21.5026 30.0156 21.9297C30.2448 22.3568 30.4583 22.8255 30.6562 23.3359C30.8594 23.8464 31.0312 24.3984 31.1719 24.9922L32.9141 24.7344H32.9609C33.0807 24.7344 33.1797 24.776 33.2578 24.8594C33.3359 24.9427 33.375 25.0391 33.375 25.1484Z" fill="#E5EEFF"/>
</svg>
